<svg xmlns="http://www.w3.org/2000/svg" width="16" height="16.69" viewBox="0 0 16 16.69">
  <g id="ic-time" transform="translate(-184 -2427)">
    <rect id="Rectangle_1942" data-name="Rectangle 1942" width="16" height="16" transform="translate(184 2427)" fill="#fff"/>
    <g id="location" transform="translate(188.859 2435)">
      <g id="Group_1329" data-name="Group 1329" transform="translate(1.569 1.46)">
        <rect id="Rectangle_532" data-name="Rectangle 532" width="2.222" height="2.222" rx="1.111" transform="translate(1.571 0) rotate(45)" fill="none" stroke="#1e1f21" stroke-linecap="round" stroke-linejoin="round" stroke-width="1"/>
      </g>
      <path id="Path_919" data-name="Path 919" d="M2312.431,1197.09a3.142,3.142,0,0,1,3.138,3.227c-.119,2.851-3.138,4.773-3.138,4.773" transform="translate(-2309.291 -1197.09)" fill="none" stroke="#1e1f21" stroke-linecap="round" stroke-linejoin="round" stroke-width="1"/>
      <path id="Path_920" data-name="Path 920" d="M2299.212,1216.687c.039.125.083.248.132.368a8.021,8.021,0,0,0,2.805,3.277" transform="translate(-2299.009 -1212.332)" fill="none" stroke="#1e1f21" stroke-linecap="round" stroke-linejoin="round" stroke-width="1"/>
      <path id="Path_921" data-name="Path 921" d="M2301.439,1197.09a3.142,3.142,0,0,0-3.137,3.227" transform="translate(-2298.299 -1197.09)" fill="none" stroke="#1e1f21" stroke-linecap="round" stroke-linejoin="round" stroke-width="1"/>
    </g>
  </g>
</svg>
